FFmpeg version SVN-r25716, Copyright (c) 2000-2010 the FFmpeg developers  built on Nov 10 2010 12:23:18 with gcc 4.1.2 20080704 (Red Hat 4.1.2-48)  configuration: --enable-libmp3lame --enable-shared --disable-mmx --arch=x86_64  libavutil     50.33. 0 / 50.33. 0  libavcore      0.12. 1 /  0.12. 1  libavcodec    52.94. 4 / 52.94. 4  libavformat   52.84. 0 / 52.84. 0  libavdevice   52. 2. 2 / 52. 2. 2  libavfilter    1.59. 0 /  1.59. 0  libswscale     0.12. 0 /  0.12. 0Input #0, avi, from '/RAID10/data/converted_video_files/47564.avi':  Duration: 00:00:06.96, start: 0.000000, bitrate: 31561 kb/s    Stream #0.0: Video: msvideo1, rgb555le, 1024x1024, 30 tbr, 30 tbn, 30 tbc[buffer @ 0x58cc510] w:1024 h:1024 pixfmt:rgb555le[ffsink @ 0x58e9de0] auto-inserting filter 'auto-inserted scaler 0' between the filter 'src' and the filter 'out'[scale @ 0x58ea100] w:1024 h:1024 fmt:rgb555le -> w:1024 h:1024 fmt:yuv420p flags:0x4Output #0, flv, to '/RAID10/data/converted_video_files/47564.flv':  Metadata:    encoder         : Lavf52.84.0    Stream #0.0: Video: flv, yuv420p, 1024x1024, q=2-31, 600 kb/s, 1k tbn, 24 tbcStream mapping:  Stream #0.0 -> #0.0Press [q] to stop encodingframe=    8 fps=  0 q=12.2 size=     424kB time=0.33 bitrate=10418.4kbits/s dup=0 drop=1    frame=   14 fps= 12 q=27.0 size=     471kB time=0.58 bitrate=6615.7kbits/s dup=0 drop=3    frame=   21 fps= 13 q=31.0 size=     480kB time=0.88 bitrate=4495.7kbits/s dup=0 drop=5    frame=   30 fps= 14 q=31.0 size=     515kB time=1.25 bitrate=3377.1kbits/s dup=0 drop=7    frame=   40 fps= 14 q=31.0 size=     551kB time=1.67 bitrate=2710.0kbits/s dup=0 drop=9    frame=   49 fps= 15 q=24.8 size=     590kB time=2.04 bitrate=2366.9kbits/s dup=0 drop=12    frame=   59 fps= 16 q=31.0 size=     603kB time=2.46 bitrate=2010.2kbits/s dup=0 drop=14    frame=   69 fps= 16 q=31.0 size=     639kB time=2.88 bitrate=1820.6kbits/s dup=0 drop=17    frame=   80 fps= 17 q=31.0 size=     675kB time=3.33 bitrate=1659.6kbits/s dup=0 drop=19    frame=   90 fps= 17 q=31.0 size=     715kB time=3.75 bitrate=1561.0kbits/s dup=0 drop=22    frame=   99 fps= 17 q=31.0 size=     756kB time=4.12 bitrate=1500.7kbits/s dup=0 drop=25    frame=  109 fps= 17 q=24.8 size=     791kB time=4.54 bitrate=1427.1kbits/s dup=0 drop=27    frame=  119 fps= 17 q=31.0 size=     800kB time=4.96 bitrate=1321.4kbits/s dup=0 drop=30    frame=  129 fps= 17 q=31.0 size=     835kB time=5.38 bitrate=1273.0kbits/s dup=0 drop=32    frame=  133 fps= 17 q=24.8 size=     866kB time=5.54 bitrate=1279.7kbits/s dup=0 drop=33    frame=  140 fps= 17 q=31.0 size=     874kB time=5.83 bitrate=1227.6kbits/s dup=0 drop=35    frame=  150 fps= 17 q=31.0 size=     912kB time=6.25 bitrate=1194.8kbits/s dup=0 drop=37    frame=  160 fps= 17 q=31.0 size=     946kB time=6.67 bitrate=1162.9kbits/s dup=0 drop=39    frame=  167 fps= 17 q=31.0 size=     955kB time=6.96 bitrate=1124.5kbits/s dup=0 drop=41    frame=  167 fps= 17 q=31.0 Lsize=     955kB time=6.96 bitrate=1124.5kbits/s dup=0 drop=42    video:952kB audio:0kB global headers:0kB muxing overhead 0.295534%